<svg width="20" height="15" viewBox="0 0 20 15" fill="none" xmlns="http://www.w3.org/2000/svg">
<path d="M19.125 6.17578V6.70703C19.125 6.92839 19.0475 7.11654 18.8926 7.27148C18.7376 7.42643 18.5495 7.50391 18.3281 7.50391H18.0625L17.1992 13.5801C17.1549 13.8236 17.0553 14.0449 16.9004 14.2441C16.7676 14.4655 16.5794 14.6315 16.3359 14.7422C16.1146 14.875 15.8711 14.9414 15.6055 14.9414H3.51953C3.12109 14.9414 2.76693 14.8086 2.45703 14.543C2.16927 14.2995 1.99219 13.9785 1.92578 13.5801L1.0625 7.50391H0.796875C0.575521 7.50391 0.38737 7.42643 0.232422 7.27148C0.077474 7.11654 0 6.92839 0 6.70703V6.17578C0 5.95443 0.077474 5.76628 0.232422 5.61133C0.38737 5.45638 0.575521 5.37891 0.796875 5.37891H3.02148L6.57422 0.498047C6.7513 0.254557 6.98372 0.110677 7.27148 0.0664062C7.55924 0.0221354 7.82487 0.0885417 8.06836 0.265625C8.31185 0.442708 8.45573 0.67513 8.5 0.962891C8.54427 1.25065 8.47786 1.51628 8.30078 1.75977L5.64453 5.37891H13.4805L10.8242 1.75977C10.6471 1.51628 10.5807 1.25065 10.625 0.962891C10.6693 0.67513 10.8132 0.442708 11.0566 0.265625C11.3001 0.0885417 11.5658 0.0221354 11.8535 0.0664062C12.1413 0.110677 12.3737 0.254557 12.5508 0.498047L16.1035 5.37891H18.3281C18.5495 5.37891 18.7376 5.45638 18.8926 5.61133C19.0475 5.76628 19.125 5.95443 19.125 6.17578ZM10.3594 12.0195V8.30078C10.3594 8.07943 10.2819 7.89128 10.127 7.73633C9.97201 7.58138 9.78385 7.50391 9.5625 7.50391C9.34115 7.50391 9.15299 7.58138 8.99805 7.73633C8.8431 7.89128 8.76562 8.07943 8.76562 8.30078V12.0195C8.76562 12.2409 8.8431 12.429 8.99805 12.584C9.15299 12.7389 9.34115 12.8164 9.5625 12.8164C9.78385 12.8164 9.97201 12.7389 10.127 12.584C10.2819 12.429 10.3594 12.2409 10.3594 12.0195ZM14.0781 12.0195V8.30078C14.0781 8.07943 14.0007 7.89128 13.8457 7.73633C13.6908 7.58138 13.5026 7.50391 13.2812 7.50391C13.0599 7.50391 12.8717 7.58138 12.7168 7.73633C12.5618 7.89128 12.4844 8.07943 12.4844 8.30078V12.0195C12.4844 12.2409 12.5618 12.429 12.7168 12.584C12.8717 12.7389 13.0599 12.8164 13.2812 12.8164C13.5026 12.8164 13.6908 12.7389 13.8457 12.584C14.0007 12.429 14.0781 12.2409 14.0781 12.0195ZM6.64062 12.0195V8.30078C6.64062 8.07943 6.56315 7.89128 6.4082 7.73633C6.25326 7.58138 6.0651 7.50391 5.84375 7.50391C5.6224 7.50391 5.43424 7.58138 5.2793 7.73633C5.12435 7.89128 5.04688 8.07943 5.04688 8.30078V12.0195C5.04688 12.2409 5.12435 12.429 5.2793 12.584C5.43424 12.7389 5.6224 12.8164 5.84375 12.8164C6.0651 12.8164 6.25326 12.7389 6.4082 12.584C6.56315 12.429 6.64062 12.2409 6.64062 12.0195Z" fill="#00A149"/>
</svg>
